<?xml version="1.0" encoding="UTF-8"?>
<svg width="289px" height="247px" viewBox="0 0 289 247" version="1.1" xmlns="http://www.w3.org/2000/svg" xmlns:xlink="http://www.w3.org/1999/xlink">
    <title>illustration-sign-in@3x</title>
    <defs>
        <linearGradient x1="50.109759%" y1="96.5431234%" x2="50.109759%" y2="7.44564594%" id="linearGradient-1">
            <stop stop-color="#F5F8FF" offset="0%"></stop>
            <stop stop-color="#D8E0EB" offset="99.13%"></stop>
        </linearGradient>
        <linearGradient x1="1.38466734%" y1="48.6577181%" x2="98.6153327%" y2="48.6577181%" id="linearGradient-2">
            <stop stop-color="#83A6FF" offset="0%"></stop>
            <stop stop-color="#5A78FF" offset="100%"></stop>
        </linearGradient>
        <linearGradient x1="1.38466734%" y1="48.6577181%" x2="98.6153327%" y2="48.6577181%" id="linearGradient-3">
            <stop stop-color="#83A6FF" offset="0%"></stop>
            <stop stop-color="#5A78FF" offset="100%"></stop>
        </linearGradient>
        <linearGradient x1="2.12765957%" y1="51.0067114%" x2="99.3583249%" y2="51.0067114%" id="linearGradient-4">
            <stop stop-color="#FF66A9" offset="0%"></stop>
            <stop stop-color="#F53689" offset="100%"></stop>
        </linearGradient>
        <linearGradient x1="2.12765957%" y1="51.0067114%" x2="99.3583249%" y2="51.0067114%" id="linearGradient-5">
            <stop stop-color="#FF66A9" offset="0%"></stop>
            <stop stop-color="#F53689" offset="100%"></stop>
        </linearGradient>
        <linearGradient x1="1.72413793%" y1="48.9726027%" x2="98.6206897%" y2="48.9726027%" id="linearGradient-6">
            <stop stop-color="#FF66A9" offset="0%"></stop>
            <stop stop-color="#F53689" offset="100%"></stop>
        </linearGradient>
        <linearGradient x1="23.3518938%" y1="8.87319619%" x2="78.5725555%" y2="92.4777403%" id="linearGradient-7">
            <stop stop-color="#FF66A9" offset="0%"></stop>
            <stop stop-color="#F53689" offset="100%"></stop>
        </linearGradient>
        <path d="M252.776839,183.121871 C252.583294,183.701655 252.583294,184.496174 252.38975,185.075957 C251.809116,187.223305 251.206978,189.198864 250.239255,190.959689 C245.744721,200.966326 237.164247,208.396147 226.820367,211.338013 C226.239733,211.531274 225.6591,211.746009 225.272011,211.746009 C220.003299,213.120311 214.347497,213.313572 208.691696,212.132531 C188.58457,208.009625 175.524615,188.017823 179.817003,167.83276 C183.917996,147.626223 203.810073,134.505932 223.895694,138.8221 C231.121357,140.389664 237.551336,143.911313 242.626504,149.000526 C251.615572,157.826122 255.507967,170.774625 252.776839,183.121871 Z" id="path-8"></path>
        <filter x="-42.9%" y="-29.4%" width="185.8%" height="185.4%" filterUnits="objectBoundingBox" id="filter-9">
            <feOffset dx="0" dy="10" in="SourceAlpha" result="shadowOffsetOuter1"></feOffset>
            <feGaussianBlur stdDeviation="9" in="shadowOffsetOuter1" result="shadowBlurOuter1"></feGaussianBlur>
            <feColorMatrix values="0 0 0 0 0.968627451   0 0 0 0 0.254901961   0 0 0 0 0.564705882  0 0 0 0.3 0" type="matrix" in="shadowBlurOuter1"></feColorMatrix>
        </filter>
        <linearGradient x1="28.4844069%" y1="22.9738354%" x2="68.4974297%" y2="60.4977664%" id="linearGradient-10">
            <stop stop-color="#E81778" offset="0%"></stop>
            <stop stop-color="#E01F79" stop-opacity="0" offset="100%"></stop>
        </linearGradient>
        <linearGradient x1="55.3054578%" y1="59.6563539%" x2="22.477379%" y2="13.9568805%" id="linearGradient-11">
            <stop stop-color="#C2D1FF" offset="1.13208%"></stop>
            <stop stop-color="#FFFFFF" offset="100%"></stop>
        </linearGradient>
        <linearGradient x1="23.2810349%" y1="9.12431108%" x2="78.8369976%" y2="92.4678506%" id="linearGradient-12">
            <stop stop-color="#83A6FF" offset="0%"></stop>
            <stop stop-color="#5A78FF" offset="100%"></stop>
        </linearGradient>
        <path d="M47.0168406,34.7017454 C47.2125356,41.1652602 41.9459739,46.6624689 35.5073926,46.8557301 L32.3870247,46.8557301 L23.8022496,47.0489914 C10.9272374,47.2422526 0.394114076,37.0638272 0.00272402906,23.9199154 C-0.1908205,10.9821489 9.95306331,0.39572756 22.8280755,0.00276303469 C35.7030876,-0.192645554 46.431906,10.0008113 46.8232961,22.9385778 L47.0168406,27.8409713 L47.0168406,34.7017454 Z" id="path-13"></path>
        <filter x="-65.9%" y="-42.5%" width="231.9%" height="231.8%" filterUnits="objectBoundingBox" id="filter-14">
            <feOffset dx="0" dy="11" in="SourceAlpha" result="shadowOffsetOuter1"></feOffset>
            <feGaussianBlur stdDeviation="8.5" in="shadowOffsetOuter1" result="shadowBlurOuter1"></feGaussianBlur>
            <feColorMatrix values="0 0 0 0 0.11372549   0 0 0 0 0.294117647   0 0 0 0 1  0 0 0 0.22 0" type="matrix" in="shadowBlurOuter1"></feColorMatrix>
        </filter>
        <linearGradient x1="29.6152191%" y1="23.0864623%" x2="67.309959%" y2="61.1436445%" id="linearGradient-15">
            <stop stop-color="#4F6AFF" offset="0%"></stop>
            <stop stop-color="#657EFF" stop-opacity="0" offset="100%"></stop>
        </linearGradient>
        <linearGradient x1="71.833479%" y1="57.8756931%" x2="49.3379041%" y2="40.6458873%" id="linearGradient-16">
            <stop stop-color="#C2D1FF" offset="1.13208%"></stop>
            <stop stop-color="#FFFFFF" offset="100%"></stop>
        </linearGradient>
    </defs>
    <g id="🧰-Admin-Panel" stroke="none" stroke-width="1" fill="none" fill-rule="evenodd">
        <g id="0.Sign-In" transform="translate(-127.000000, -382.000000)">
            <g id="sidebar" transform="translate(0.000000, 112.000000)">
                <g id="illustration-sign-in" transform="translate(144.000000, 276.000000)">
                    <line x1="30.8020901" y1="230.926326" x2="229.985216" y2="230.926326" id="Path" stroke="#EBF0F6" stroke-width="2" stroke-linecap="round" stroke-linejoin="round"></line>
                    <path d="M174.794939,229.358763 C159.967277,229.766759 142.214943,229.358763 129.731321,229.165502 C117.245548,229.552024 99.4932138,229.766759 84.6677029,229.358763 C99.2975188,220.941162 104.370536,205.458789 105.151166,195.258891 L154.115781,195.258891 C155.28565,205.244055 160.358667,220.941162 174.794939,229.358763 Z" id="Path" fill="url(#linearGradient-1)" fill-rule="nonzero"></path>
                    <path d="M86.2289621,231.914106 L173.233679,231.914106 C174.403548,231.914106 175.573418,230.926326 175.573418,229.552024 C175.573418,228.392457 174.599243,227.211416 173.233679,227.211416 L86.2289621,227.211416 C85.0569425,227.211416 83.8870733,228.199196 83.8870733,229.552024 C84.0827683,230.926326 85.0569425,231.914106 86.2289621,231.914106 Z" id="Path" fill="#EBF0F6" fill-rule="nonzero"></path>
                    <path d="M222.383237,65.2799685 L222.383237,193.498066 C222.383237,196.633193 219.867158,198.973801 216.92098,198.973801 L43.5050826,198.973801 C40.5804097,198.973801 38.0428259,196.439931 38.0428259,193.498066 L38.0428259,65.2799685 C38.0428259,62.338103 40.5804097,59.8042334 43.5050826,59.8042334 L216.92098,59.8042334 C220.060703,59.8042334 222.383237,62.338103 222.383237,65.2799685 Z" id="Path" fill="#F5F8FF" fill-rule="nonzero"></path>
                    <path d="M222.383237,65.2799685 L222.383237,175.653611 L38.0428259,175.653611 L38.0428259,65.2799685 C38.0428259,62.338103 40.5804097,59.8042334 43.5050826,59.8042334 L216.92098,59.8042334 C220.060703,59.8042334 222.383237,62.338103 222.383237,65.2799685 Z" id="Path" fill="#172D45" fill-rule="nonzero"></path>
                    <polygon id="Path" fill="#FFFFFF" fill-rule="nonzero" points="215.372624 66.847532 44.2857122 66.847532 44.2857122 169.576619 215.372624 169.576619"></polygon>
                    <path d="M129.924865,192.510286 C132.404386,192.510286 134.412948,190.49178 134.412948,188.000857 C134.412948,185.509935 132.404386,183.491428 129.924865,183.491428 C127.447495,183.491428 125.438933,185.509935 125.438933,188.000857 C125.438933,190.49178 127.447495,192.510286 129.924865,192.510286 Z" id="Path" fill="#DBDFE6" fill-rule="nonzero"></path>
                    <path d="M63.1477018,55.6598534 C65.7089411,54.822388 67.1110637,52.0523102 66.2788222,49.4754936 C65.4465807,46.8986771 62.6939474,45.5029014 60.1327082,46.3403668 C57.5714689,47.1778322 56.1693463,49.9264365 57.0015878,52.5032531 C57.8338292,55.0800697 60.5864625,56.4973188 63.1477018,55.6598534 Z" id="Path" fill="url(#linearGradient-2)" fill-rule="nonzero"></path>
                    <path d="M73.7926509,39.6621172 C75.5345517,39.103807 76.4893713,37.2141415 75.9216407,35.4533169 C75.3560606,33.7139657 73.4851301,32.7476595 71.7432294,33.3274432 C70.0013286,33.8857535 69.0486594,35.7754189 69.6142396,37.5147701 C70.1798197,39.2755948 72.0507501,40.241901 73.7926509,39.6621172 Z" id="Path" fill="url(#linearGradient-3)" fill-rule="nonzero"></path>
                    <path d="M252.597689,105.735989 C255.608381,102.944437 255.823431,98.241747 253.049293,95.2139876 C250.296659,92.1647547 245.608581,91.9500199 242.576383,94.7200977 C239.56569,97.511649 239.350641,102.214339 242.124779,105.263572 C244.877412,108.291332 249.565491,108.506066 252.597689,105.735989 Z" id="Path" fill="url(#linearGradient-4)" fill-rule="nonzero"></path>
                    <path d="M253.156817,72.3232671 C254.425609,71.1636997 254.511629,69.1881403 253.350362,67.8997321 C252.189095,66.6113238 250.210639,66.5254299 248.941848,67.7064708 C247.673056,68.8660383 247.565531,70.8630711 248.748303,72.1300059 C249.90957,73.4184142 251.86652,73.5043081 253.156817,72.3232671 Z" id="Path" fill="url(#linearGradient-5)" fill-rule="nonzero"></path>
                    <path d="M218.684386,43.3340808 C220.404782,43.3340808 221.802604,41.9168317 221.802604,40.198954 C221.802604,38.4596029 220.404782,37.0638272 218.684386,37.0638272 C216.96399,37.0638272 215.566169,38.4596029 215.566169,40.198954 C215.566169,41.9168317 216.96399,43.3340808 218.684386,43.3340808 Z" id="Path" fill="url(#linearGradient-6)" fill-rule="nonzero"></path>
                    <path d="M205.415833,85.6797663 L205.415833,98.8000573 C205.415833,100.775617 203.867477,102.34318 201.910527,102.34318 L57.5521144,102.34318 C55.6016157,102.34318 54.0403565,100.775617 54.0403565,98.8000573 L54.0403565,85.6797663 C54.0403565,83.704207 55.6016157,82.1366435 57.5521144,82.1366435 L201.910527,82.1366435 C203.867477,82.1366435 205.415833,83.704207 205.415833,85.6797663 Z" id="Path" fill="#E3EAF2" fill-rule="nonzero"></path>
                    <path d="M74.3281241,82.1366435 L74.3281241,102.536441 L57.3564194,102.536441 C55.4059207,102.536441 53.8446615,100.968878 53.8446615,98.9933185 L53.8446615,85.8730276 C53.8446615,83.8974682 55.4059207,82.3299048 57.3564194,82.3299048 L74.3281241,82.3299048 L74.3281241,82.1366435 Z" id="Path" fill="#CED7E2" fill-rule="nonzero"></path>
                    <path d="M205.415833,113.122863 L205.415833,126.243154 C205.415833,128.218713 203.867477,129.786276 201.910527,129.786276 L57.5521144,129.786276 C55.6016157,129.786276 54.0403565,128.218713 54.0403565,126.243154 L54.0403565,113.122863 C54.0403565,111.147303 55.6016157,109.57974 57.5521144,109.57974 L201.910527,109.57974 C203.867477,109.57974 205.415833,111.147303 205.415833,113.122863 Z" id="Path" fill="#E3EAF2" fill-rule="nonzero"></path>
                    <path d="M74.3281241,109.57974 L74.3281241,129.979538 L57.3564194,129.979538 C55.4059207,129.979538 53.8446615,128.411974 53.8446615,126.436415 L53.8446615,113.316124 C53.8446615,111.362038 55.4059207,109.773001 57.3564194,109.773001 L74.3281241,109.773001 L74.3281241,109.57974 Z" id="Path" fill="#6B84FF" fill-rule="nonzero"></path>
                    <path d="M63.4036107,124.095807 C63.0143711,124.095807 62.6229811,123.902545 62.4294366,123.709284 L59.3069182,120.574157 C58.7219836,119.9729 58.7219836,119.006594 59.3069182,118.405337 C59.8918527,117.825553 60.8681774,117.825553 61.4531119,118.405337 L63.4036107,120.359423 L68.0852378,115.656732 C68.6701724,115.076949 69.646497,115.076949 70.2314316,115.656732 C70.8163661,116.257989 70.8163661,117.224296 70.2314316,117.825553 L64.3799353,123.516023 C64.1842403,123.902545 63.7950007,124.095807 63.4036107,124.095807 Z" id="Path" fill="#FFFFFF" fill-rule="nonzero"></path>
                    <path d="M205.415833,140.565959 L205.415833,153.68625 C205.415833,155.661809 203.867477,157.229373 201.910527,157.229373 L57.5521144,157.229373 C55.6016157,157.229373 54.0403565,155.661809 54.0403565,153.68625 L54.0403565,140.565959 C54.0403565,138.5904 55.6016157,137.022836 57.5521144,137.022836 L201.910527,137.022836 C203.867477,137.022836 205.415833,138.5904 205.415833,140.565959 Z" id="Path" fill="#E3EAF2" fill-rule="nonzero"></path>
                    <path d="M74.3281241,137.022836 L74.3281241,157.422634 L57.3564194,157.422634 C55.4059207,157.422634 53.8446615,155.855071 53.8446615,153.900985 L53.8446615,140.75922 C53.8446615,138.805134 55.4059207,137.237571 57.3564194,137.237571 L74.3281241,137.237571 L74.3281241,137.022836 Z" id="Path" fill="#CED7E2" fill-rule="nonzero"></path>
                    <path d="M205.415833,168.009055 L205.415833,169.576619 L53.8446615,169.576619 L53.8446615,168.009055 C53.8446615,166.05497 55.4059207,164.487406 57.3564194,164.487406 L201.716982,164.487406 C203.867477,164.487406 205.415833,166.05497 205.415833,168.009055 Z" id="Path" fill="#E3EAF2" fill-rule="nonzero"></path>
                    <path d="M74.3281241,164.487406 L74.3281241,169.576619 L53.8446615,169.576619 L53.8446615,168.009055 C53.8446615,166.05497 55.4059207,164.487406 57.3564194,164.487406 L74.3281241,164.487406 Z" id="Path" fill="#CED7E2" fill-rule="nonzero"></path>
                    <path d="M52.0898577,222.315464 C52.0898577,226.030375 49.1630344,228.972241 45.4555814,228.972241 L8.39180411,228.972241 C4.68435113,228.972241 1.75967825,226.030375 1.75967825,222.315464 L1.75967825,135.455273 C1.75967825,131.740362 4.68435113,128.798497 8.39180411,128.798497 L45.2620369,128.798497 C48.9673393,128.798497 51.8941627,131.740362 51.8941627,135.455273 L51.8941627,222.315464 L52.0898577,222.315464 Z" id="Path" fill="#FFFFFF" fill-rule="nonzero"></path>
                    <path d="M45.4555814,128.605236 C49.1630344,128.605236 52.0898577,131.547101 52.0898577,135.262012 L52.0898577,222.122203 C52.0898577,225.837114 49.1630344,228.778979 45.4555814,228.778979 L8.39180411,228.778979 C4.68435113,228.778979 1.75967825,225.837114 1.75967825,222.122203 L1.75967825,135.455273 C1.75967825,131.740362 4.68435113,128.798497 8.39180411,128.798497 L45.4555814,128.798497 L45.4555814,128.605236 Z" id="Path" fill="#1C3754" fill-rule="nonzero"></path>
                    <path d="M48.7737948,135.455273 L48.7737948,222.315464 C48.7737948,224.076289 47.4082306,225.643852 45.4555814,225.643852 L45.2620369,225.643852 L8.39180411,225.643852 L8.19610908,225.643852 C6.44130536,225.643852 4.88004616,224.076289 4.88004616,222.315464 L4.88004616,135.455273 C4.88004616,133.501187 6.44130536,132.126885 8.19610908,132.126885 L13.6583658,132.126885 C14.4389954,132.126885 15.02393,132.728142 15.02393,133.501187 C15.02393,134.875489 16.1937991,136.05653 17.5593633,136.05653 L36.2880222,136.05653 C37.6535864,136.05653 38.8234555,134.875489 38.8234555,133.501187 C38.8234555,132.728142 39.4083901,132.126885 39.9933247,132.126885 L45.2620369,132.126885 C47.2125356,131.933624 48.7737948,133.501187 48.7737948,135.455273 Z" id="Path" fill="#FFFFFF" fill-rule="nonzero"></path>
                    <path d="M30.0451359,133.307926 L25.1678138,133.307926 C24.7785742,133.307926 24.3871842,132.921403 24.3871842,132.513407 C24.3871842,132.126885 24.7785742,131.740362 25.1678138,131.740362 L30.0451359,131.740362 C30.4365259,131.740362 30.8257655,132.126885 30.8257655,132.513407 C30.8257655,132.921403 30.4365259,133.307926 30.0451359,133.307926 Z" id="Path" fill="#2D5887" fill-rule="nonzero"></path>
                    <path d="M22.4366854,133.307926 L22.0474459,133.307926 C21.6560558,133.307926 21.2668163,132.921403 21.2668163,132.513407 C21.2668163,132.126885 21.6560558,131.740362 22.0474459,131.740362 L22.4366854,131.740362 C22.8280755,131.740362 23.217315,132.126885 23.217315,132.513407 C23.217315,132.921403 22.8280755,133.307926 22.4366854,133.307926 Z" id="Path" fill="#2D5887" fill-rule="nonzero"></path>
                    <path d="M43.7007777,164.272671 L10.1466078,164.272671 C9.17243371,164.272671 8.39180411,163.499626 8.39180411,162.511847 L8.39180411,145.655172 C8.39180411,144.667392 9.17243371,143.894347 10.1466078,143.894347 L43.8964727,143.894347 C44.8706468,143.894347 45.6512764,144.667392 45.6512764,145.655172 L45.6512764,162.511847 C45.4577319,163.499626 44.6771023,164.272671 43.7007777,164.272671 Z" id="Path" fill="#6B84FF" fill-rule="nonzero"></path>
                    <path d="M25.5592038,158.410414 C25.1678138,158.410414 24.7785742,158.195679 24.5828792,158.002418 L21.4625113,154.867291 C20.8775767,154.287507 20.8775767,153.299728 21.4625113,152.719944 C22.0474459,152.118687 23.02162,152.118687 23.6087051,152.719944 L25.5592038,154.67403 L30.2408309,149.971339 C30.8257655,149.391556 31.8020901,149.391556 32.3870247,149.971339 C32.9719593,150.551123 32.9719593,151.538903 32.3870247,152.118687 L26.729073,157.809157 C26.3398334,158.195679 25.9484434,158.410414 25.5592038,158.410414 Z" id="Path" fill="#FFFFFF" fill-rule="nonzero"></path>
                    <path d="M43.7007777,189.568421 L10.1466078,189.568421 C9.17243371,189.568421 8.39180411,188.795376 8.39180411,187.807596 L8.39180411,170.950921 C8.39180411,169.963141 9.17243371,169.190096 10.1466078,169.190096 L43.8964727,169.190096 C44.8706468,169.190096 45.6512764,169.963141 45.6512764,170.950921 L45.6512764,187.807596 C45.4577319,188.795376 44.6771023,189.568421 43.7007777,189.568421 Z" id="Path" fill="#CED7E2" fill-rule="nonzero"></path>
                    <path d="M43.7007777,215.057431 L10.1466078,215.057431 C9.17243371,215.057431 8.39180411,214.262913 8.39180411,213.296606 L8.39180411,196.439931 C8.39180411,195.452152 9.17243371,194.657633 10.1466078,194.657633 L43.8964727,194.657633 C44.8706468,194.657633 45.6512764,195.452152 45.6512764,196.439931 L45.6512764,213.296606 C45.4555814,214.262913 44.6771023,215.057431 43.7007777,215.057431 Z" id="Path" fill="#E3EAF2" fill-rule="nonzero"></path>
                    <path d="M45.4577319,222.122203 L45.4577319,225.643852 L45.2620369,225.643852 L8.39180411,225.643852 L8.19610908,225.643852 L8.19610908,222.122203 C8.19610908,221.134424 8.97673868,220.339905 9.95306331,220.339905 L43.7007777,220.339905 C44.6771023,220.339905 45.4577319,221.134424 45.4577319,222.122203 Z" id="Path" fill="#E3EAF2" fill-rule="nonzero"></path>
                    <path d="M51.5049232,74.685349 C52.582321,74.685349 53.4554219,73.8049367 53.4554219,72.7312631 C53.4554219,71.6575895 52.582321,70.7771772 51.5049232,70.7771772 C50.4275253,70.7771772 49.5522739,71.6575895 49.5522739,72.7312631 C49.5522739,73.8049367 50.4275253,74.685349 51.5049232,74.685349 Z" id="Path" fill="#E3EAF2" fill-rule="nonzero"></path>
                    <path d="M57.7478095,74.685349 C58.8252073,74.685349 59.6983082,73.8049367 59.6983082,72.7312631 C59.6983082,71.6575895 58.8252073,70.7771772 57.7478095,70.7771772 C56.6704116,70.7771772 55.7951602,71.6575895 55.7951602,72.7312631 C55.7951602,73.8049367 56.6704116,74.685349 57.7478095,74.685349 Z" id="Path" fill="#E3EAF2" fill-rule="nonzero"></path>
                    <path d="M63.9885453,74.685349 C65.0659431,74.685349 65.939044,73.8049367 65.939044,72.7312631 C65.939044,71.6575895 65.0659431,70.7771772 63.9885453,70.7771772 C62.9111474,70.7771772 62.0380465,71.6575895 62.0380465,72.7312631 C62.0380465,73.8049367 62.9111474,74.685349 63.9885453,74.685349 Z" id="Path" fill="#E3EAF2" fill-rule="nonzero"></path>
                    <g id="Path" fill-rule="nonzero">
                        <use fill="black" fill-opacity="1" filter="url(#filter-9)" xlink:href="#path-8"></use>
                        <use fill="url(#linearGradient-7)" xlink:href="#path-8"></use>
                    </g>
                    <g id="Group-3" transform="translate(200.000000, 159.000000)" fill-rule="nonzero">
                        <path d="M45.3713556,14.1430427 C45.3713556,15.495074 45.3713556,16.8471054 45.1793159,18.1991368 C44.989038,19.1597907 44.989038,20.3161334 44.6067204,21.2767872 C42.3110529,33.8008675 32.3619859,43.0516086 20.6933705,44.9729164 C18.397703,45.3642939 16.1020355,45.5599826 13.806368,45.3642939 L1.37135563,32.8402136 L12.4673755,16.6514167 L24.3280306,7.59636434 L32.7460653,1.44106353 L45.3713556,14.1430427 Z" id="Path" fill="url(#linearGradient-10)"></path>
                        <path d="M31.7031987,1.04483928 C26.2366553,-0.522047509 20.5741074,-0.323935386 15.3035683,1.62116546 C14.9115596,1.81927758 14.5213491,2.0173897 14.327143,2.41361395 C13.3507176,3.38616437 12.5684984,4.35871479 11.7880774,5.52937733 C11.7880774,4.95305116 11.7880774,4.35871479 11.7880774,3.78238861 C11.7880774,3.58427649 11.5938712,3.58427649 11.5938712,3.58427649 C11.5938712,3.58427649 11.5938712,3.58427649 11.3978669,3.58427649 C9.44501614,4.55682691 7.88237591,5.92560158 6.3215339,7.47447818 C5.93132339,7.87070242 5.73531904,8.26692667 5.73531904,8.64514072 C5.34510853,9.63570133 5.14910418,10.6082518 4.95489803,11.3826901 C4.75889367,10.9864658 4.75889367,10.6082518 4.56468752,10.2120275 C4.56468752,10.0139154 4.36868317,10.0139154 4.36868317,10.0139154 C4.36868317,10.0139154 4.36868317,10.0139154 4.17267881,10.0139154 C2.22162629,13.1296788 0.854990424,16.6416664 0.462981714,20.3517662 C0.462981714,21.1442147 0.462981714,22.1167651 0.462981714,22.8912034 L0.658986069,24.259978 C0.658986069,24.4580902 0.658986069,24.4580902 0.854990424,24.4580902 C1.04919657,24.4580902 1.04919657,24.4580902 1.04919657,24.259978 C5.73531904,15.4710039 11.3978669,7.87070242 21.5505328,4.16060267 C22.1367477,3.96249054 22.7229625,4.16060267 22.9171687,4.75493904 C23.113173,5.33126521 22.9171687,5.92560158 22.3309538,6.1237137 C10.4214415,10.4101396 4.95489803,20.7479904 0.0727712096,31.4820654 C-0.12143494,32.0583916 0.0727712096,32.652728 0.658986069,32.8328299 C1.24520093,33.030942 1.82961758,32.8328299 2.02562194,32.2565037 C2.80604295,30.4915048 3.58826216,28.7445161 4.36868317,27.1776293 C4.75889367,26.403191 5.53931468,25.6287527 6.51574005,25.4306406 C13.5449237,24.0618659 19.7936864,20.3517662 24.0895984,14.4984534 C24.674015,13.7240151 25.2602299,12.9495768 25.8464448,11.9590162 C26.0406509,11.7789143 25.8464448,11.3826901 25.6504404,11.3826901 C25.6504404,11.3826901 25.6504404,11.3826901 25.4562343,11.3826901 L21.7465372,10.6082518 C25.6504404,9.43758921 26.6268658,10.0139154 28.189506,7.47447818 C29.3601375,5.52937733 30.7267734,3.58427649 31.8992031,1.81927758 C32.6796241,1.44106353 32.6796241,1.2429514 31.7031987,1.04483928 Z" id="Path" fill="url(#linearGradient-11)"></path>
                    </g>
                    <g id="Path" fill-rule="nonzero">
                        <use fill="black" fill-opacity="1" filter="url(#filter-14)" xlink:href="#path-13"></use>
                        <use fill="url(#linearGradient-12)" xlink:href="#path-13"></use>
                    </g>
                    <path d="M47.0168406,34.7017454 C47.2125356,41.1652602 41.9459739,46.6624689 35.5073926,46.8557301 L32.3870247,46.8557301 L16.3894941,30.7721001 L30.0451359,18.4312961 L34.726763,15.6869865 L46.8232961,27.8409713 L47.0168406,34.7017454 Z" id="Path" fill="url(#linearGradient-15)" fill-rule="nonzero"></path>
                    <path d="M20.2904916,33.3274432 C19.5120125,33.3274432 18.7313829,33.134182 18.1464484,32.5543982 L12.4884966,26.8596336 C11.3186275,25.6850348 11.3186275,23.9199154 12.4884966,22.7431692 C13.6583658,21.566423 15.41532,21.566423 16.5851892,22.7431692 L20.0969471,26.2712605 L30.6300705,15.6869865 C31.8020901,14.5102403 33.5568938,14.5102403 34.726763,15.6869865 C35.8987826,16.8615854 35.8987826,18.6267047 34.726763,19.803451 L22.2431409,32.3396635 C21.6560558,32.9409207 20.8775767,33.3274432 20.2904916,33.3274432 Z" id="Path" fill="url(#linearGradient-16)" fill-rule="nonzero"></path>
                    <line x1="19.7055571" y1="111.555299" x2="19.7055571" y2="107.625654" id="Path" stroke="#83A0FF" stroke-width="2.1512605" stroke-linecap="round" stroke-linejoin="round"></line>
                    <line x1="19.7055571" y1="100.560882" x2="19.7055571" y2="75.0933449" id="Path" stroke="#83A0FF" stroke-width="2.1512605" stroke-linecap="round" stroke-linejoin="round" stroke-dasharray="7.959663968126312"></line>
                    <line x1="19.7055571" y1="71.5502222" x2="19.7055571" y2="67.6420504" id="Path" stroke="#83A0FF" stroke-width="2.1512605" stroke-linecap="round" stroke-linejoin="round"></line>
                    <path d="M19.5120125,121.540463 C21.0195094,121.540463 22.2431409,120.316476 22.2431409,118.791859 C22.2431409,117.288716 21.0195094,116.064728 19.5120125,116.064728 C18.0023652,116.064728 16.7808842,117.288716 16.7808842,118.791859 C16.7808842,120.316476 18.0023652,121.540463 19.5120125,121.540463 Z" id="Path" stroke="#83A0FF" stroke-width="2.1512605"></path>
                    <path d="M19.5120125,62.7246255 C21.0195094,62.7246255 22.2431409,61.5006376 22.2431409,59.9974946 C22.2431409,58.4728781 21.0195094,57.2488903 19.5120125,57.2488903 C18.0023652,57.2488903 16.7808842,58.4728781 16.7808842,59.9974946 C16.7808842,61.5006376 18.0023652,62.7246255 19.5120125,62.7246255 Z" id="Path" stroke="#83A0FF" stroke-width="2.1512605"></path>
                    <line x1="60.8681774" y1="23.3315423" x2="64.7691749" y2="23.3315423" id="Path" stroke="#83A0FF" stroke-width="2.1512605" stroke-linecap="round" stroke-linejoin="round"></line>
                    <path d="M72.5733204,23.3315423 L119.587437,23.3315423 C126.415258,23.3315423 131.877514,28.8180142 131.877514,35.689525 L131.877514,106.251352" id="Path" stroke="#83A0FF" stroke-width="2.1512605" stroke-linecap="round" stroke-linejoin="round" stroke-dasharray="8.583529432280724"></path>
                    <line x1="131.681819" y1="109.987736" x2="131.681819" y2="113.895908" id="Path" stroke="#83A0FF" stroke-width="2.1512605" stroke-linecap="round" stroke-linejoin="round"></line>
                    <path d="M54.8209861,25.6850348 C56.1134334,25.6850348 57.1607244,24.6306873 57.1607244,23.3315423 C57.1607244,22.0323973 56.1134334,20.9801972 54.8209861,20.9801972 C53.5285387,20.9801972 52.4790973,22.0323973 52.4790973,23.3315423 C52.4790973,24.6306873 53.5285387,25.6850348 54.8209861,25.6850348 Z" id="Path" stroke="#83A0FF" stroke-width="2.1512605"></path>
                    <path d="M131.877514,122.334982 C133.169962,122.334982 134.217253,121.282782 134.217253,119.9729 C134.217253,118.684492 133.169962,117.632292 131.877514,117.632292 C130.582917,117.632292 129.535626,118.684492 129.535626,119.9729 C129.535626,121.282782 130.582917,122.334982 131.877514,122.334982 Z" id="Path" stroke="#83A0FF" stroke-width="2.1512605"></path>
                </g>
            </g>
        </g>
    </g>
</svg>