<?xml version="1.0" encoding="UTF-8"?>
<svg width="24px" height="24px" viewBox="0 0 24 24" version="1.1" xmlns="http://www.w3.org/2000/svg" xmlns:xlink="http://www.w3.org/1999/xlink">
    <title>Log out@3x</title>
    <defs>
        <filter x="-138.6%" y="-240.0%" width="377.1%" height="645.7%" filterUnits="objectBoundingBox" id="filter-1">
            <feMorphology radius="4" operator="erode" in="SourceAlpha" result="shadowSpreadOuter1"></feMorphology>
            <feOffset dx="0" dy="32" in="shadowSpreadOuter1" result="shadowOffsetOuter1"></feOffset>
            <feGaussianBlur stdDeviation="24" in="shadowOffsetOuter1" result="shadowBlurOuter1"></feGaussianBlur>
            <feColorMatrix values="0 0 0 0 0   0 0 0 0 0   0 0 0 0 0  0 0 0 0.100000001 0" type="matrix" in="shadowBlurOuter1" result="shadowMatrixOuter1"></feColorMatrix>
            <feMorphology radius="2" operator="erode" in="SourceAlpha" result="shadowSpreadOuter2"></feMorphology>
            <feOffset dx="0" dy="0" in="shadowSpreadOuter2" result="shadowOffsetOuter2"></feOffset>
            <feGaussianBlur stdDeviation="7" in="shadowOffsetOuter2" result="shadowBlurOuter2"></feGaussianBlur>
            <feColorMatrix values="0 0 0 0 0   0 0 0 0 0   0 0 0 0 0  0 0 0 0.0500000007 0" type="matrix" in="shadowBlurOuter2" result="shadowMatrixOuter2"></feColorMatrix>
            <feMorphology radius="6" operator="erode" in="SourceAlpha" result="shadowSpreadOuter3"></feMorphology>
            <feOffset dx="0" dy="40" in="shadowSpreadOuter3" result="shadowOffsetOuter3"></feOffset>
            <feGaussianBlur stdDeviation="32" in="shadowOffsetOuter3" result="shadowBlurOuter3"></feGaussianBlur>
            <feColorMatrix values="0 0 0 0 0   0 0 0 0 0   0 0 0 0 0  0 0 0 0.0799999982 0" type="matrix" in="shadowBlurOuter3" result="shadowMatrixOuter3"></feColorMatrix>
            <feMerge>
                <feMergeNode in="shadowMatrixOuter1"></feMergeNode>
                <feMergeNode in="shadowMatrixOuter2"></feMergeNode>
                <feMergeNode in="shadowMatrixOuter3"></feMergeNode>
                <feMergeNode in="SourceGraphic"></feMergeNode>
            </feMerge>
        </filter>
    </defs>
    <g id="🧰-Admin-Panel" stroke="none" stroke-width="1" fill="none" fill-rule="evenodd">
        <g id="1.-Home---Header" transform="translate(-1094.000000, -284.000000)">
            <g id="Dropdown" filter="url(#filter-1)" transform="translate(1066.000000, 196.000000)">
                <g id="Log-out" transform="translate(16.000000, 76.000000)">
                    <rect id="place-holder" x="0" y="0" width="248" height="48"></rect>
                    <g transform="translate(12.000000, 12.000000)">
                        <polygon id="Background" points="0 0 24 0 24 24 0 24"></polygon>
                        <path d="M12,2 C13.6569,2 15,3.34315 15,5 L15,6 L15,6 C15,6.55228 14.5523,7 14,7 C13.4477,7 13,6.55228 13,6 L13,5 L13,5 C13,4.44772 12.55229,4 12,4 L6,4 L6,4 C5.44772,4 5,4.44772 5,5 L5,19 L5,19 C5,19.5523 5.44772,20 6,20 L12,20 L12,20 C12.55229,20 13,19.5523 13,19 L13,18 L13,18 C13,17.4477 13.4477,17 14,17 C14.5523,17 15,17.4477 15,18 L15,19 L15,19 C15,20.6569 13.6569,22 12,22 L6,22 L6,22 C4.34315,22 3,20.6569 3,19 L3,5 L3,5 C3,3.34315 4.34315,2 6,2 L12,2 L12,2 Z M16.29289,7.79289 C16.68342,7.40236 17.31658,7.40236 17.70711,7.79289 C17.70711,7.79289 17.7109411,7.79672114 17.7183196,7.80409963 L18.297387,8.38316912 C18.6856077,8.77139116 19.2002554,9.28604077 19.6344496,9.72023648 L19.909723,9.99551088 C20.0822655,10.168054 20.2298348,10.3156238 20.3342684,10.4200578 L20.4887904,10.5745804 L20.4887904,10.5745804 L20.5,10.58579 C21.281,11.36683 21.2811,12.63316 20.5,13.41421 C20.5,13.41421 20.4961689,13.4180411 20.4887904,13.4254196 L20.3342684,13.5799422 C20.2298348,13.6843762 20.0822655,13.831946 19.909723,14.0044891 L19.6344496,14.2797635 C19.2002554,14.7139592 18.6856077,15.2286088 18.297387,15.6168309 L17.7183196,16.1959004 L17.7183196,16.1959004 L17.70711,16.20711 C17.31658,16.59763 16.68342,16.59763 16.29289,16.20711 C15.90237,15.81658 15.90237,15.18342 16.29289,14.79289 C16.29289,14.79289 16.3466773,14.7391033 16.4542519,14.6315299 L16.5797556,14.5060276 C16.6275665,14.4582172 16.6813538,14.4044305 16.7411175,14.3446675 L17.7451471,13.3406491 C17.8527217,13.2330757 17.9662727,13.119526 18.0858,13 L18.0858,13 L9,13 C8.44772,13 8,12.55229 8,12 C8,11.44772 8.44772,11 9,11 L9,11 L18.0858,11 C17.9662727,10.880474 17.8527217,10.7669243 17.7451471,10.6593509 L16.7411175,9.6553325 C16.6813538,9.5955695 16.6275665,9.5417828 16.5797556,9.4939724 L16.4542519,9.3684701 C16.3466773,9.2608967 16.29289,9.20711 16.29289,9.20711 C15.90237,8.81658 15.90237,8.18341 16.29289,7.79289 Z" id="Combined-Shape" fill="#6F767E"></path>
                    </g>
                </g>
            </g>
        </g>
    </g>
</svg>